<svg id='img_hacker' xmlns="http://www.w3.org/2000/svg" viewBox="0 0 297.5 292.42"><defs><style>.cls-1,.cls-2{stroke:#000;stroke-miterlimit:10;}.cls-2{stroke-width:10px;}</style></defs><g id="Capa_2" data-name="Capa 2"><g id="Capa_1-2" data-name="Capa 1"><path class="cls-1" d="M150.07,228.26c49.86,4,62.47-26.64,62.47-26.64,4-12.78,11.88-26.46,11.88-26.46-7.5,2.84-10.8,13.82-15.17,19.89-6.73,9.38-16.67,18.8-28.85,19.32-4.39.18-14.12.67-15.92-4.65-3.31,4.54-8.58,8.75-14.41,8.88h-.93c-5.83-.13-11.1-4.34-14.41-8.88-1.8,5.32-11.53,4.83-15.92,4.65-12.17-.52-22.12-9.94-28.85-19.32C85.59,189,82.29,178,74.79,175.16c0,0,7.92,13.68,11.88,26.46,0,0,12.62,30.6,62.47,26.64Z"/><path class="cls-1" d="M147.9,241s34.74.5,41.78-16.2c0,0,3.36,14.4-30.84,18.72,0,0-9.36,8.76-.12,15.84,0,0,6,5.4-1,15,0,0-.47,17.76-8.15,17.52H147.9c-7.69.24-8.15-17.52-8.15-17.52-7-9.6-1-15-1-15,9.24-7.08-.12-15.84-.12-15.84-34.2-4.32-30.84-18.72-30.84-18.72,7,16.7,41.78,16.2,41.78,16.2Z"/><g id="sombrero"><path class="cls-2" d="M198.3,71.68c76.35,15.87,94.14,29.52,94.2,39.62.13,21-76.25,42.6-143.75,42.62S4.92,132.45,5,111.3c0-10.18,17.81-24,94.2-40.18"/><path class="cls-2" d="M207.14,102.8h-120c-4-.87-8.38-2-13-3.35A140.74,140.74,0,0,1,54.76,92q7.05-37.77,14.11-75.52C68.87,10.12,77.07,5,87.18,5h120c10.11,0,18.31,5.12,18.31,11.44l19,75.32C237,94.4,228.89,97,220.08,99.45Q213.45,101.3,207.14,102.8Z"/></g></g></g></svg>